<svg width="257" height="257" viewBox="0 0 257 257" fill="none" xmlns="http://www.w3.org/2000/svg">
<g clip-path="url(#clip0_39_2)">
<g filter="url(#filter0_di_39_2)">
<rect x="1" width="256" height="256" rx="47" fill="url(#paint0_radial_39_2)"/>
<rect x="2" y="1" width="254" height="254" rx="46" stroke="#5E5E5E" stroke-opacity="0.3" stroke-width="2"/>
</g>
<g filter="url(#filter1_i_39_2)">
<path fill-rule="evenodd" clip-rule="evenodd" d="M128.691 20L170.04 127.426H170.383L170.211 127.872L170.383 128.317H170.04L128.691 235.743L87.3431 128.317H87L87.1716 127.872L87 127.426H87.3431L128.691 20ZM135.292 112.002C138.385 112.528 141.395 113.447 144.248 114.736C144.273 114.746 144.293 114.764 144.305 114.787C149.274 121.978 151.728 130.091 150.811 139.43C150.809 139.449 150.803 139.468 150.793 139.485C150.789 139.492 150.784 139.499 150.779 139.505C150.772 139.514 150.763 139.522 150.753 139.529C146.99 142.249 143.344 143.9 139.749 144.994C139.721 145.002 139.691 145.002 139.663 144.993C139.636 144.983 139.612 144.966 139.595 144.942C138.764 143.805 138.01 142.606 137.349 141.347C137.34 141.329 137.334 141.311 137.333 141.291C137.332 141.272 137.335 141.252 137.342 141.234C137.349 141.216 137.36 141.199 137.374 141.186C137.388 141.172 137.405 141.161 137.423 141.154C138.612 140.714 139.761 140.176 140.857 139.546C140.877 139.535 140.894 139.518 140.906 139.499C140.918 139.479 140.924 139.457 140.926 139.434C140.927 139.412 140.922 139.389 140.912 139.368C140.903 139.348 140.888 139.33 140.869 139.316C140.637 139.146 140.406 138.967 140.186 138.789C140.166 138.773 140.142 138.763 140.116 138.76C140.098 138.757 140.08 138.759 140.062 138.764C140.055 138.766 140.048 138.768 140.042 138.771C132.926 142.006 125.13 142.006 117.929 138.771C117.906 138.761 117.881 138.758 117.856 138.761C117.83 138.764 117.807 138.775 117.787 138.79C117.567 138.969 117.336 139.146 117.106 139.316C117.087 139.33 117.072 139.348 117.063 139.369C117.053 139.389 117.049 139.412 117.05 139.435C117.051 139.458 117.058 139.48 117.071 139.499C117.083 139.519 117.099 139.535 117.119 139.546C118.216 140.165 119.355 140.709 120.552 141.156C120.57 141.163 120.587 141.173 120.601 141.187C120.615 141.2 120.626 141.217 120.633 141.235C120.641 141.253 120.644 141.272 120.643 141.291C120.642 141.311 120.637 141.33 120.628 141.347C119.981 142.608 119.227 143.807 118.38 144.944C118.363 144.967 118.339 144.984 118.311 144.993C118.284 145.002 118.254 145.002 118.226 144.994C114.648 143.9 111.003 142.249 107.239 139.529C107.223 139.517 107.21 139.502 107.2 139.484C107.19 139.467 107.184 139.448 107.182 139.428C106.415 131.35 107.978 123.171 113.682 114.785C113.696 114.763 113.717 114.746 113.741 114.735C116.593 113.446 119.604 112.527 122.697 112.002C122.725 111.998 122.754 112.002 122.78 112.014C122.805 112.026 122.827 112.045 122.841 112.069C123.23 112.746 123.674 113.614 123.974 114.323C127.286 113.825 130.651 113.825 134.033 114.323C134.333 113.629 134.761 112.746 135.148 112.069C135.162 112.045 135.183 112.025 135.209 112.013C135.235 112.001 135.264 111.997 135.292 112.002ZM117.749 130.146C117.749 132.551 119.535 134.509 121.703 134.509C123.906 134.509 125.658 132.551 125.658 130.146C125.692 127.758 123.923 125.782 121.704 125.782C119.501 125.782 117.749 127.741 117.749 130.146ZM132.369 130.146C132.369 132.551 134.156 134.509 136.324 134.509C138.544 134.509 140.278 132.551 140.278 130.146C140.313 127.758 138.544 125.782 136.324 125.782C134.121 125.782 132.369 127.741 132.369 130.146Z" fill="white"/>
</g>
</g>
<defs>
<filter id="filter0_di_39_2" x="-3" y="0" width="264" height="264" filterUnits="userSpaceOnUse" color-interpolation-filters="sRGB">
<feFlood flood-opacity="0" result="BackgroundImageFix"/>
<feColorMatrix in="SourceAlpha" type="matrix" values="0 0 0 0 0 0 0 0 0 0 0 0 0 0 0 0 0 0 127 0" result="hardAlpha"/>
<feOffset dy="4"/>
<feGaussianBlur stdDeviation="2"/>
<feComposite in2="hardAlpha" operator="out"/>
<feColorMatrix type="matrix" values="0 0 0 0 0 0 0 0 0 0 0 0 0 0 0 0 0 0 0.25 0"/>
<feBlend mode="normal" in2="BackgroundImageFix" result="effect1_dropShadow_39_2"/>
<feBlend mode="normal" in="SourceGraphic" in2="effect1_dropShadow_39_2" result="shape"/>
<feColorMatrix in="SourceAlpha" type="matrix" values="0 0 0 0 0 0 0 0 0 0 0 0 0 0 0 0 0 0 127 0" result="hardAlpha"/>
<feOffset dy="4"/>
<feGaussianBlur stdDeviation="2"/>
<feComposite in2="hardAlpha" operator="arithmetic" k2="-1" k3="1"/>
<feColorMatrix type="matrix" values="0 0 0 0 0 0 0 0 0 0 0 0 0 0 0 0 0 0 0.25 0"/>
<feBlend mode="normal" in2="shape" result="effect2_innerShadow_39_2"/>
</filter>
<filter id="filter1_i_39_2" x="87" y="20" width="83.3827" height="219.743" filterUnits="userSpaceOnUse" color-interpolation-filters="sRGB">
<feFlood flood-opacity="0" result="BackgroundImageFix"/>
<feBlend mode="normal" in="SourceGraphic" in2="BackgroundImageFix" result="shape"/>
<feColorMatrix in="SourceAlpha" type="matrix" values="0 0 0 0 0 0 0 0 0 0 0 0 0 0 0 0 0 0 127 0" result="hardAlpha"/>
<feOffset dy="4"/>
<feGaussianBlur stdDeviation="2"/>
<feComposite in2="hardAlpha" operator="arithmetic" k2="-1" k3="1"/>
<feColorMatrix type="matrix" values="0 0 0 0 0 0 0 0 0 0 0 0 0 0 0 0 0 0 0.25 0"/>
<feBlend mode="normal" in2="shape" result="effect1_innerShadow_39_2"/>
</filter>
<radialGradient id="paint0_radial_39_2" cx="0" cy="0" r="1" gradientUnits="userSpaceOnUse" gradientTransform="translate(129 128) rotate(90) scale(128)">
<stop/>
<stop offset="1" stop-color="#1A1A1A"/>
</radialGradient>
<clipPath id="clip0_39_2">
<rect width="257" height="257" fill="white"/>
</clipPath>
</defs>
</svg>
